<?xml version="1.0" standalone="no"?>
<!DOCTYPE svg PUBLIC "-//W3C//DTD SVG 20010904//EN"
 "http://www.w3.org/TR/2001/REC-SVG-20010904/DTD/svg10.dtd">
<svg version="1.0" xmlns="http://www.w3.org/2000/svg"
 width="180.000000pt" height="180.000000pt" viewBox="0 0 180.000000 180.000000"
 preserveAspectRatio="xMidYMid meet">
<metadata>
Created by potrace 1.11, written by Peter Selinger 2001-2013
</metadata>
<g transform="translate(0.000000,180.000000) scale(0.100000,-0.100000)"
fill="#000000" stroke="none">
<path d="M0 900 l0 -900 900 0 900 0 0 900 0 900 -900 0 -900 0 0 -900z m1230
507 c-60 -186 -111 -345 -112 -355 -3 -15 12 -16 177 -14 l180 3 -82 -82 -83
-83 -32 31 c-50 47 -96 66 -174 71 -61 4 -80 1 -125 -20 -73 -33 -109 -66
-144 -130 -26 -46 -30 -63 -30 -133 0 -86 16 -129 71 -194 14 -18 25 -33 23
-34 -2 -2 -102 -97 -221 -211 -120 -114 -218 -204 -218 -199 0 5 58 171 130
368 71 198 130 361 130 363 0 1 -57 2 -127 3 -71 0 -148 4 -172 7 l-44 7 478
472 c263 260 480 471 482 470 1 -2 -47 -155 -107 -340z"/>
</g>
</svg>
