<svg version="1.1" id="Capa_1" xmlns="http://www.w3.org/2000/svg" xmlns:xlink="http://www.w3.org/1999/xlink" x="0px" y="0px" width="391.758px" height="451.758px" viewBox="0 0 391.758 451.758" style="enable-background:new 0 0 391.758 451.758;" xml:space="preserve">

	<svg width="391.758px" height="391.758px" viewBox="0 0 391.758 391.758" style="enable-background:new 0 0 391.758 391.758;">
		<path d="M368.16,22.724H23.6C10.586,22.724,0,33.313,0,46.32l0.001,229.647c0,13.016,10.585,23.597,23.6,23.597h102.222
			c0,0,6.422,0,4.963-4.644c-1.022-3.254-5.678-11.905-5.885-12.31c-1.905-3.719-6.909-3.327-6.909-3.327H42.968
			c-3.148,0-5.724-2.523-5.724-5.601V48.6c0-3.078,2.575-5.6,5.724-5.6h296.319c3.148,0,5.725,2.522,5.725,5.6v225.086
			c0,3.078-2.576,5.601-5.725,5.601h-39.41c0,0-7.953-0.809-7.953,6.004c0,2.067,0,6.205,0,8.272c0,6.003,8.447,6.003,8.447,6.003
			h67.789c13.01,0,23.598-10.581,23.598-23.598V46.32C391.758,33.313,381.17,22.724,368.16,22.724z M363.438,172.44
			c-6.352,0-11.5-5.149-11.5-11.5c0-6.352,5.148-11.5,11.5-11.5c6.35,0,11.5,5.148,11.5,11.5
			C374.938,167.292,369.787,172.44,363.438,172.44z"/>
	</svg>

	<svg y="60px" width="391.758px" height="391.758px" viewBox="0 0 391.758 391.758" style="enable-background:new 0 0 391.758 391.758;">
		<path d="M264.564,225.057c-4.901,0-9.168,3.063-11.44,7.596v-0.69c0-9.494-6.735-17.189-15.048-17.189
			c-5.723,0-10.698,3.652-13.243,9.027c-2.545-5.375-7.519-9.027-13.243-9.027c-4.582,0-8.681,2.35-11.439,6.042v-53.316
			c0-9.494-6.736-17.19-15.046-17.19c-8.312,0-15.05,7.696-15.05,17.19v104.997l-7.008-14.611c-2.734-5.702-7.888-8.938-13.205-8.938
			c-2.444,0-4.927,0.688-7.221,2.12c-7.286,4.568-9.957,15.014-5.96,23.334l34.69,72.321c0.023,0.083,3.724,5.928,5.587,8.722
			c5.091,7.707,11.847,13.592,20.749,13.592h52.242c15.361,0,27.822-14.754,27.822-32.948v-95.964
			C277.75,231.8,271.846,225.057,264.564,225.057z"/>
	</svg>

	<svg version="1.1" id="Capa_1" xmlns="http://www.w3.org/2000/svg" xmlns:xlink="http://www.w3.org/1999/xlink" x="100px" y="50px"
	 width="180" height="180" viewBox="0 0 611.997 611.998" style="enable-background:new 0 0 611.997 611.998;"
	 xml:space="preserve">
		<g>
			<g>
				<path d="M511.114,300.251c-9.94,0-17.638,7.663-17.638,17.651v241.105H368.401v-98.453c0-9.236-7.697-17.31-17.002-17.31h-90.435
					c-9.948,0-17.96,8.073-17.96,17.31v98.453h-124.76v-233.1c0-9.306-7.69-17.036-17.638-17.036c-9.298,0-16.995,7.73-16.995,17.036
					v250.752c0,9.305,7.697,17.036,16.995,17.036h160.358c9.298,0,16.995-7.731,16.995-17.036v-98.454h55.801v98.454
					c0,9.305,7.697,17.036,17.639,17.036h159.715c9.299,0,16.995-7.731,16.995-17.036V317.903
					C528.109,307.915,520.413,300.251,511.114,300.251z"/>
				<path d="M607.003,314.003L467.819,174.225V78.919c0-9.921-8.019-17.583-17.96-17.583c-9.305,0-17.001,7.663-17.001,17.583v60.345
					L318.046,23.774c-3.518-3.558-7.697-5.474-11.864-5.474c-4.81,0-8.983,1.984-12.507,5.474L5.361,312.087
					c-6.917,6.91-7.375,17.994,0,24.357c6.411,7.389,17.454,6.91,24.371,0l276.45-275.793l275.807,278.393
					c2.873,2.874,7.054,4.516,12.507,4.516c4.81,0,8.976-1.642,12.507-4.516C613.42,332.613,613.899,320.982,607.003,314.003z"/>
			</g>
		</g>
	</svg>
</svg>
