<?xml version="1.0" encoding="iso-8859-1"?>
<!-- Generator: Adobe Illustrator 19.1.0, SVG Export Plug-In . SVG Version: 6.00 Build 0)  -->
<svg version="1.1" id="Capa_1" xmlns="http://www.w3.org/2000/svg" xmlns:xlink="http://www.w3.org/1999/xlink" x="0px" y="0px"
	 viewBox="0 0 460.6 460.6" style="enable-background:new 0 0 460.6 460.6;" xml:space="preserve">
<g>
	<g>
		<path d="M325.4,75.4c3.2,0,6.3-1.3,8.5-3.5s3.5-5.3,3.5-8.5c0-3.1-1.3-6.3-3.5-8.5s-5.3-3.5-8.5-3.5s-6.3,1.3-8.5,3.5
			s-3.5,5.3-3.5,8.5c0,3.2,1.3,6.3,3.5,8.5C319.1,74.1,322.2,75.4,325.4,75.4z"/>
		<path d="M385.1,146.2c-1.1-6.5-7.3-10.9-13.9-9.8c-6.5,1.1-10.9,7.3-9.8,13.9c1,5.8,6.1,10,11.8,10c0.7,0,1.3-0.1,2-0.2
			C381.8,159,386.2,152.8,385.1,146.2z"/>
		<path d="M367.1,250.2c3.3-5.8,1.2-13.1-4.5-16.4c-5.8-3.3-13.1-1.2-16.4,4.6c-3.3,5.8-1.2,13.1,4.6,16.3c1.9,1.1,3.9,1.6,5.9,1.6
			C360.9,256.3,364.9,254.1,367.1,250.2z"/>
		<path d="M356.7,113.7c2,0,4-0.5,5.9-1.6c5.8-3.3,7.8-10.6,4.5-16.4s-10.6-7.8-16.4-4.5s-7.8,10.6-4.5,16.4
			C348.4,111.5,352.5,113.7,356.7,113.7z"/>
		<path d="M375.3,185.9c-6.5-1.1-12.7,3.3-13.9,9.8c-1.1,6.5,3.3,12.7,9.8,13.9c0.7,0.1,1.4,0.2,2,0.2c5.7,0,10.8-4.1,11.8-10
			C386.2,193.2,381.8,187,375.3,185.9z"/>
		<path d="M325.4,294.6c3.2,0,6.3-1.3,8.5-3.5s3.5-5.3,3.5-8.5s-1.3-6.3-3.5-8.5s-5.3-3.5-8.5-3.5s-6.3,1.3-8.5,3.5
			s-3.5,5.3-3.5,8.5s1.3,6.3,3.5,8.5C319.1,293.3,322.2,294.6,325.4,294.6z"/>
		<path d="M135.2,270.6c-3.2,0-6.3,1.3-8.5,3.5s-3.5,5.3-3.5,8.5s1.3,6.3,3.5,8.5s5.3,3.5,8.5,3.5s6.3-1.3,8.5-3.5s3.5-5.3,3.5-8.5
			s-1.3-6.3-3.5-8.5C141.5,271.9,138.4,270.6,135.2,270.6z"/>
		<path d="M93.4,95.8c-3.3,5.8-1.2,13.1,4.5,16.4c1.9,1.1,3.9,1.6,5.9,1.6c4.2,0,8.3-2.2,10.5-6.1c3.3-5.8,1.2-13.1-4.5-16.4
			C104,88,96.7,90,93.4,95.8z"/>
		<path d="M87.3,209.7c0.7,0,1.4-0.1,2-0.2c6.5-1.1,10.9-7.3,9.8-13.9c-1.1-6.5-7.3-10.9-13.9-9.8c-6.5,1.1-10.9,7.3-9.8,13.9
			C76.5,205.6,81.6,209.7,87.3,209.7z"/>
		<path d="M87.3,160.3c5.7,0,10.8-4.1,11.8-10c1.1-6.5-3.3-12.7-9.8-13.9c-6.5-1.1-12.7,3.3-13.9,9.8c-1.1,6.5,3.3,12.7,9.8,13.9
			C86,160.2,86.6,160.3,87.3,160.3z"/>
		<path d="M98,233.9c-5.8,3.3-7.8,10.6-4.5,16.4l0,0c2.2,3.9,6.3,6.1,10.5,6.1c2,0,4-0.5,5.9-1.6c5.8-3.3,7.8-10.6,4.5-16.4
			C111.1,232.6,103.8,230.6,98,233.9z"/>
		<path d="M135.2,75.4c3.2,0,6.3-1.3,8.5-3.5s3.5-5.3,3.5-8.5c0-3.1-1.3-6.3-3.5-8.5s-5.3-3.5-8.5-3.5s-6.3,1.3-8.5,3.5
			s-3.5,5.3-3.5,8.5c0,3.2,1.3,6.3,3.5,8.5C129,74.1,132.1,75.4,135.2,75.4z"/>
		<path d="M376.7,24c3.2,0,6.3-1.3,8.5-3.5s3.5-5.3,3.5-8.5s-1.3-6.3-3.5-8.5S379.9,0,376.7,0s-6.3,1.3-8.5,3.5s-3.5,5.3-3.5,8.5
			s1.3,6.3,3.5,8.5C370.5,22.7,373.6,24,376.7,24z"/>
		<path d="M418.4,89.8c2,4.5,6.4,7.1,11,7.1c1.6,0,3.3-0.3,4.9-1c6.1-2.7,8.8-9.8,6.1-15.8c-2.7-6.1-9.8-8.8-15.8-6.1
			C418.5,76.7,415.7,83.8,418.4,89.8z"/>
		<path d="M434.3,250c-6.1-2.7-13.1,0.1-15.8,6.1c-2.7,6.1,0.1,13.1,6.1,15.8c1.6,0.7,3.2,1,4.9,1c4.6,0,9-2.7,11-7.1
			C443.1,259.8,440.3,252.7,434.3,250z"/>
		<path d="M445.7,206.2c-6.5-1.4-12.9,2.8-14.2,9.3c-1.4,6.5,2.8,12.9,9.3,14.2c0.8,0.2,1.7,0.3,2.5,0.3c5.6,0,10.5-3.9,11.7-9.5
			C456.4,213.9,452.2,207.6,445.7,206.2z"/>
		<path d="M447.9,161c-6.6,0-12,5.4-12,12s5.4,12,12,12s12-5.4,12-12C459.9,166.3,454.6,161,447.9,161z"/>
		<path d="M406.9,57.7c2.4,0,4.9-0.7,7-2.3c5.4-3.9,6.6-11.4,2.7-16.8s-11.4-6.6-16.8-2.7s-6.6,11.4-2.7,16.8
			C399.5,56,403.2,57.7,406.9,57.7z"/>
		<path d="M413.9,290.5c-5.4-3.9-12.9-2.7-16.8,2.7c-3.9,5.4-2.7,12.9,2.7,16.8c2.1,1.5,4.6,2.3,7,2.3c3.7,0,7.4-1.7,9.7-5
			C420.5,301.9,419.3,294.3,413.9,290.5z"/>
		<path d="M431.5,130.4c1.2,5.6,6.2,9.5,11.7,9.5c0.8,0,1.6-0.1,2.5-0.3c6.5-1.4,10.6-7.7,9.3-14.2c-1.4-6.5-7.7-10.6-14.2-9.3
			C434.3,117.6,430.2,124,431.5,130.4z"/>
		<path d="M376.8,322c-3.2,0-6.3,1.3-8.5,3.5s-3.5,5.3-3.5,8.5s1.3,6.3,3.5,8.5s5.3,3.5,8.5,3.5s6.3-1.3,8.5-3.5s3.5-5.3,3.5-8.5
			s-1.3-6.3-3.5-8.5C383,323.3,379.9,322,376.8,322z"/>
		<path d="M83.8,322c-3.2,0-6.3,1.3-8.5,3.5s-3.5,5.3-3.5,8.5c0,3.1,1.3,6.3,3.5,8.5s5.3,3.5,8.5,3.5s6.3-1.3,8.5-3.5
			s3.5-5.3,3.5-8.5s-1.3-6.3-3.5-8.5S87,322,83.8,322z"/>
		<path d="M14.8,139.8c0.8,0.2,1.7,0.3,2.5,0.3c5.5,0,10.5-3.9,11.7-9.5c1.4-6.5-2.8-12.9-9.3-14.2c-6.5-1.4-12.9,2.8-14.2,9.3
			C4.2,132.1,8.4,138.4,14.8,139.8z"/>
		<path d="M46.7,55.5c2.1,1.5,4.6,2.3,7,2.3c3.7,0,7.4-1.7,9.7-5c3.9-5.4,2.7-12.9-2.7-16.8c-5.4-3.9-12.9-2.7-16.8,2.7
			C40.1,44.1,41.3,51.6,46.7,55.5z"/>
		<path d="M29.1,215.6c-1.4-6.5-7.7-10.6-14.2-9.3c-6.5,1.4-10.6,7.7-9.3,14.2l0,0c1.2,5.7,6.2,9.5,11.7,9.5c0.8,0,1.6-0.1,2.5-0.3
			C26.3,228.4,30.4,222,29.1,215.6z"/>
		<path d="M24.7,173c0-6.6-5.4-12-12-12s-12,5.4-12,12s5.4,12,12,12S24.7,179.7,24.7,173z"/>
		<path d="M26.3,96c1.6,0.7,3.2,1,4.9,1c4.6,0,9-2.7,11-7.1c2.7-6.1-0.1-13.1-6.1-15.8C30,71.4,23,74.2,20.3,80.2
			C17.5,86.2,20.3,93.3,26.3,96z"/>
		<path d="M46.7,290.5c-5.4,3.9-6.6,11.4-2.7,16.8c2.3,3.3,6,5,9.7,5c2.4,0,4.9-0.7,7-2.3c5.4-3.9,6.6-11.4,2.7-16.8
			C59.6,287.9,52.1,286.6,46.7,290.5z"/>
		<path d="M42.2,256.2c-2.7-6.1-9.8-8.8-15.8-6.1c-6.1,2.7-8.8,9.8-6.1,15.8c2,4.5,6.4,7.2,11,7.2c1.6,0,3.3-0.3,4.9-1
			C42.1,269.3,44.9,262.2,42.2,256.2z"/>
		<path d="M83.8,24c3.1,0,6.3-1.3,8.5-3.5s3.5-5.3,3.5-8.5s-1.3-6.3-3.5-8.5S87,0,83.8,0s-6.3,1.3-8.5,3.5s-3.5,5.3-3.5,8.5
			s1.3,6.3,3.5,8.5C77.6,22.7,80.7,24,83.8,24z"/>
		<path d="M265.4,233.6c20.9-12.1,34.9-34.7,34.9-60.6c0-38.6-31.4-70-70-70s-70,31.4-70,70c0,25.8,14.1,48.4,34.9,60.6l-77.7,210.9
			c-1.4,3.7-0.8,7.8,1.4,11s5.9,5.1,9.8,5.1h203.1c3.9,0,7.6-1.9,9.8-5.1s2.8-7.3,1.4-11L265.4,233.6z M184.3,173
			c0-25.4,20.7-46,46-46s46,20.7,46,46c0,19.7-12.5,36.6-30,43.1c-0.1,0-0.1,0-0.2,0.1c-0.1,0-0.1,0.1-0.2,0.1
			c-4.9,1.8-10.2,2.8-15.7,2.8C204.9,219,184.3,198.4,184.3,173z M217.7,241.9c4.1,0.7,8.3,1.2,12.6,1.2c4.3,0,8.5-0.4,12.6-1.2
			l34.3,93.1h-93.8L217.7,241.9z M145.9,436.6l28.6-77.6H286l28.6,77.6H145.9z"/>
	</g>
</g>
<g>
</g>
<g>
</g>
<g>
</g>
<g>
</g>
<g>
</g>
<g>
</g>
<g>
</g>
<g>
</g>
<g>
</g>
<g>
</g>
<g>
</g>
<g>
</g>
<g>
</g>
<g>
</g>
<g>
</g>
</svg>
